# xmcd CD database file
#
# Track frame offsets:
#	150
#	19902
#	39736
#	67287
#	92813
#	108397
#	132884
#	155742
#	184701
#	202397
#	224914
#	243466
#
# Disc length: 3581 seconds
#
# Revision: 1
# Processed by: cddbd v1.5.2PL0 Copyright (c) Steve Scherf et al.
# Submitted via: CDex 1.51
#
DISCID=c30dfb0c
DTITLE=Various Artist - Gregorian Chillout
DYEAR=2008
DGENRE=New Age
TTITLE0=Close To Heaven
TTITLE1=Caritas (Charity)
TTITLE2=Tempting The Muse
TTITLE3=Pange Lingua
TTITLE4=Coloris
TTITLE5=Ayume
TTITLE6=Lesiem
TTITLE7=Elysian Fields
TTITLE8=Nouveau Rituel
TTITLE9=Agnus Dei
TTITLE10=Britannia
TTITLE11=Rain
EXTD=YEAR: 2008
EXTT0=
EXTT1=
EXTT2=
EXTT3=
EXTT4=
EXTT5=
EXTT6=
EXTT7=
EXTT8=
EXTT9=
EXTT10=
EXTT11=
PLAYORDER=
